{
    "asset" : {
        "generator" : "Khronos glTF Blender I/O v1.4.40",
        "version" : "2.0"
    },
    "scene" : 0,
    "scenes" : [
        {
            "name" : "Scene",
            "nodes" : [
                0
            ]
        }
    ],
    "nodes" : [
        {
            "mesh" : 0,
            "name" : "Coffee Cup",
            "rotation" : [
                0.7061848640441895,
                0.0360974483191967,
                -0.036097452044487,
                0.7061847448348999
            ],
            "scale" : [
                0.07604728639125824,
                0.07604728639125824,
                0.06511535495519638
            ]
        }
    ],
    "materials" : [
        {
            "doubleSided" : true,
            "name" : "Material.003",
            "pbrMetallicRoughness" : {
                "baseColorTexture" : {
                    "index" : 0,
                    "texCoord" : 0
                },
                "metallicFactor" : 0,
                "roughnessFactor" : 0.5
            }
        }
    ],
    "meshes" : [
        {
            "name" : "Coffee Cup",
            "primitives" : [
                {
                    "attributes" : {
                        "POSITION" : 0,
                        "NORMAL" : 1,
                        "TEXCOORD_0" : 2
                    },
                    "indices" : 3,
                    "material" : 0
                }
            ]
        }
    ],
    "textures" : [
        {
            "sampler" : 0,
            "source" : 0
        }
    ],
    "images" : [
        {
            "mimeType" : "image/png",
            "name" : "213112dasdsa",
            "uri" : "213112dasdsa.png"
        }
    ],
    "accessors" : [
        {
            "bufferView" : 0,
            "componentType" : 5126,
            "count" : 62241,
            "max" : [
                59.819149017333984,
                59.823020935058594,
                -17.983783721923828
            ],
            "min" : [
                -59.81915283203125,
                -59.823020935058594,
                -211.60235595703125
            ],
            "type" : "VEC3"
        },
        {
            "bufferView" : 1,
            "componentType" : 5126,
            "count" : 62241,
            "type" : "VEC3"
        },
        {
            "bufferView" : 2,
            "componentType" : 5126,
            "count" : 62241,
            "type" : "VEC2"
        },
        {
            "bufferView" : 3,
            "componentType" : 5123,
            "count" : 369600,
            "type" : "SCALAR"
        }
    ],
    "bufferViews" : [
        {
            "buffer" : 0,
            "byteLength" : 746892,
            "byteOffset" : 0
        },
        {
            "buffer" : 0,
            "byteLength" : 746892,
            "byteOffset" : 746892
        },
        {
            "buffer" : 0,
            "byteLength" : 497928,
            "byteOffset" : 1493784
        },
        {
            "buffer" : 0,
            "byteLength" : 739200,
            "byteOffset" : 1991712
        }
    ],
    "samplers" : [
        {
            "magFilter" : 9729,
            "minFilter" : 9986,
            "wrapS" : 33071,
            "wrapT" : 33071
        }
    ],
    "buffers" : [
        {
            "byteLength" : 2730912,
            "uri" : "2 varrr.bin"
        }
    ]
}
